<svg width="241" height="58" viewBox="0 0 241 58" fill="none" xmlns="http://www.w3.org/2000/svg">
<rect x="0.5" width="240" height="58" fill="white"/>
<path d="M137.968 44C135.771 44 133.831 43.8255 132.149 43.4764C130.495 43.1542 129.098 42.6037 127.959 41.825C126.846 41.0463 125.992 40.0394 125.395 38.8042C124.826 37.5421 124.527 35.9981 124.5 34.1722H130.359C130.413 35.2194 130.617 36.0921 130.969 36.7903C131.322 37.4616 131.824 37.9986 132.475 38.4014C133.126 38.7773 133.899 39.0458 134.794 39.2069C135.716 39.3412 136.761 39.4083 137.927 39.4083C139.419 39.4083 140.64 39.3278 141.589 39.1667C142.566 38.9787 143.325 38.7236 143.868 38.4014C144.41 38.0792 144.79 37.6898 145.007 37.2333C145.224 36.75 145.332 36.1995 145.332 35.5819C145.332 34.9912 145.21 34.5079 144.966 34.1319C144.749 33.756 144.437 33.4606 144.03 33.2458C143.651 33.0042 143.19 32.8162 142.647 32.6819C142.132 32.5477 141.562 32.4269 140.938 32.3194L132.597 30.7083C130.101 30.225 128.257 29.3657 127.063 28.1306C125.897 26.8954 125.314 25.2171 125.314 23.0958C125.314 21.9681 125.531 20.9208 125.965 19.9542C126.399 18.9606 127.104 18.1014 128.081 17.3764C129.084 16.6514 130.386 16.0741 131.987 15.6444C133.614 15.2148 135.608 15 137.968 15C140.029 15 141.833 15.1611 143.379 15.4833C144.953 15.8056 146.268 16.3426 147.326 17.0944C148.411 17.8194 149.239 18.7995 149.808 20.0347C150.405 21.2699 150.744 22.787 150.825 24.5861H145.251C145.17 23.5389 144.953 22.6931 144.6 22.0486C144.247 21.4042 143.759 20.9074 143.135 20.5583C142.538 20.1824 141.806 19.9273 140.938 19.7931C140.097 19.6588 139.121 19.5917 138.009 19.5917C136.517 19.5917 135.31 19.6856 134.387 19.8736C133.465 20.0616 132.746 20.3167 132.231 20.6389C131.715 20.9611 131.363 21.337 131.173 21.7667C130.983 22.1694 130.888 22.5856 130.888 23.0153C130.888 23.8745 131.173 24.5593 131.743 25.0694C132.312 25.5528 133.275 25.9153 134.631 26.1569L142.688 27.6472C144.071 27.8889 145.278 28.1977 146.309 28.5736C147.34 28.9495 148.194 29.4329 148.872 30.0236C149.578 30.6144 150.107 31.3394 150.459 32.1986C150.812 33.0579 150.988 34.1051 150.988 35.3403C150.988 36.7097 150.771 37.9315 150.337 39.0056C149.93 40.0528 149.225 40.9523 148.221 41.7042C147.218 42.456 145.875 43.0199 144.193 43.3958C142.538 43.7986 140.463 44 137.968 44Z" fill="#101010"/>
<path d="M175.147 35.9847C174.984 37.4884 174.645 38.7639 174.13 39.8111C173.614 40.8315 172.922 41.6505 172.054 42.2681C171.186 42.8856 170.142 43.3287 168.921 43.5972C167.728 43.8657 166.385 44 164.893 44C163.13 44 161.584 43.8255 160.255 43.4764C158.926 43.1273 157.8 42.55 156.878 41.7444C155.955 40.912 155.264 39.8245 154.803 38.4819C154.341 37.1394 154.111 35.4611 154.111 33.4472C154.111 31.3796 154.341 29.6611 154.803 28.2917C155.264 26.8954 155.955 25.781 156.878 24.9486C157.8 24.1162 158.926 23.5255 160.255 23.1764C161.584 22.8273 163.13 22.6528 164.893 22.6528C166.385 22.6528 167.714 22.787 168.881 23.0556C170.074 23.2972 171.105 23.7269 171.973 24.3444C172.841 24.9352 173.533 25.7407 174.048 26.7611C174.564 27.7546 174.903 28.9898 175.065 30.4667H169.939C169.695 28.9898 169.111 27.9963 168.189 27.4861C167.294 26.9491 166.195 26.6806 164.893 26.6806C163.998 26.6806 163.198 26.788 162.493 27.0028C161.787 27.1907 161.191 27.5398 160.702 28.05C160.214 28.5333 159.848 29.2181 159.604 30.1042C159.36 30.9634 159.238 32.0778 159.238 33.4472C159.238 34.7361 159.36 35.8102 159.604 36.6694C159.848 37.5019 160.214 38.1731 160.702 38.6833C161.191 39.1667 161.787 39.5023 162.493 39.6903C163.198 39.8782 163.998 39.9722 164.893 39.9722C166.277 39.9722 167.416 39.7037 168.311 39.1667C169.233 38.6028 169.803 37.5421 170.02 35.9847H175.147Z" fill="#101010"/>
<path d="M184.872 44C182.702 44 180.938 43.4764 179.582 42.4292C178.253 41.3819 177.588 39.7843 177.588 37.6361C177.588 36.8574 177.71 36.1056 177.955 35.3806C178.226 34.6287 178.66 33.9708 179.257 33.4069C179.881 32.8162 180.708 32.3463 181.739 31.9972C182.797 31.6481 184.126 31.4736 185.726 31.4736C186.54 31.4736 187.245 31.487 187.842 31.5139C188.466 31.5139 189.035 31.5273 189.551 31.5542C190.093 31.581 190.609 31.6079 191.097 31.6347C191.585 31.6616 192.114 31.6884 192.684 31.7153V30.1042C192.684 28.8958 192.318 28.0231 191.585 27.4861C190.88 26.9491 189.7 26.6806 188.045 26.6806C186.581 26.6806 185.468 26.8954 184.709 27.325C183.949 27.7546 183.475 28.6273 183.285 29.9431H178.239C178.375 28.5736 178.673 27.419 179.135 26.4792C179.623 25.5394 180.274 24.7875 181.088 24.2236C181.901 23.6597 182.891 23.2569 184.058 23.0153C185.251 22.7736 186.608 22.6528 188.127 22.6528C191.192 22.6528 193.565 23.2301 195.247 24.3847C196.956 25.5394 197.811 27.4324 197.811 30.0639V43.3958H192.684V39.8111H192.155C191.639 41.2343 190.731 42.2949 189.429 42.9931C188.127 43.6643 186.608 44 184.872 44ZM187.109 40.1333C187.788 40.1333 188.466 40.0796 189.144 39.9722C189.822 39.838 190.419 39.6097 190.934 39.2875C191.45 38.9653 191.87 38.5356 192.196 37.9986C192.521 37.4616 192.684 36.7768 192.684 35.9444V34.6556C191.734 34.6019 190.839 34.5616 189.998 34.5347C189.185 34.5079 188.439 34.4944 187.76 34.4944C186.675 34.4944 185.807 34.575 185.156 34.7361C184.505 34.8972 184.004 35.112 183.651 35.3806C183.325 35.6222 183.108 35.9176 183 36.2667C182.891 36.6157 182.837 36.9648 182.837 37.3139C182.837 38.3611 183.19 39.0995 183.895 39.5292C184.6 39.9319 185.672 40.1333 187.109 40.1333Z" fill="#101010"/>
<path d="M216.373 30.0236C216.373 28.6542 215.966 27.7546 215.153 27.325C214.366 26.8954 213.2 26.6806 211.653 26.6806C210.162 26.6806 208.995 26.9759 208.154 27.5667C207.313 28.1574 206.866 29.0972 206.812 30.3861V43.3958H201.685V23.2569H206.812V27.0028H207.34C207.802 25.5528 208.588 24.4653 209.7 23.7403C210.84 23.0153 212.237 22.6528 213.891 22.6528C215.031 22.6528 216.061 22.7602 216.984 22.975C217.933 23.1898 218.733 23.5657 219.384 24.1028C220.062 24.613 220.578 25.3111 220.93 26.1972C221.31 27.0833 221.5 28.1977 221.5 29.5403V43.3958H216.373V30.0236Z" fill="#101010"/>
<path d="M24.5 14H26.3657V15.8542H24.5V14Z" fill="#101010"/>
<path d="M26.3657 14H28.2315V15.8542H26.3657V14Z" fill="#101010"/>
<path d="M28.2315 14H30.0972V15.8542H28.2315V14Z" fill="#101010"/>
<path d="M30.0972 14H31.963V15.8542H30.0972V14Z" fill="#101010"/>
<path d="M31.963 14H33.8287V15.8542H31.963V14Z" fill="#101010"/>
<path d="M33.8287 14H35.6944V15.8542H33.8287V14Z" fill="#101010"/>
<path d="M35.6944 14H37.5602V15.8542H35.6944V14Z" fill="#101010"/>
<path d="M37.5602 14H39.4259V15.8542H37.5602V14Z" fill="#101010"/>
<path d="M39.4259 14H41.2917V15.8542H39.4259V14Z" fill="#101010"/>
<path d="M109.903 14H111.769V15.8542H109.903V14Z" fill="#101010"/>
<path d="M111.769 14H113.634V15.8542H111.769V14Z" fill="#101010"/>
<path d="M113.634 14H115.5V15.8542H113.634V14Z" fill="#101010"/>
<path d="M24.5 15.8542H26.3657V17.7084H24.5V15.8542Z" fill="#101010"/>
<path d="M26.3657 15.8542H28.2315V17.7084H26.3657V15.8542Z" fill="#101010"/>
<path d="M28.2315 15.8542H30.0972V17.7084H28.2315V15.8542Z" fill="#101010"/>
<path d="M30.0972 15.8542H31.963V17.7084H30.0972V15.8542Z" fill="#101010"/>
<path d="M31.963 15.8542H33.8287V17.7084H31.963V15.8542Z" fill="#101010"/>
<path d="M33.8287 15.8542H35.6944V17.7084H33.8287V15.8542Z" fill="#101010"/>
<path d="M35.6944 15.8542H37.5602V17.7084H35.6944V15.8542Z" fill="#101010"/>
<path d="M37.5602 15.8542H39.4259V17.7084H37.5602V15.8542Z" fill="#101010"/>
<path d="M39.4259 15.8542H41.2917V17.7084H39.4259V15.8542Z" fill="#101010"/>
<path d="M41.2917 15.8542L43.1574 15.8542V17.7084H41.2917V15.8542Z" fill="#101010"/>
<path d="M43.1574 15.8542H45.0231V17.7084H43.1574V15.8542Z" fill="#101010"/>
<path d="M45.0231 15.8542H46.8889V17.7084H45.0231V15.8542Z" fill="#101010"/>
<path d="M109.903 15.8542H111.769V17.7084H109.903V15.8542Z" fill="#101010"/>
<path d="M111.769 15.8542H113.634V17.7084H111.769V15.8542Z" fill="#101010"/>
<path d="M113.634 15.8542H115.5V17.7084H113.634V15.8542Z" fill="#101010"/>
<path d="M24.5 17.7084H26.3657V19.5626H24.5V17.7084Z" fill="#101010"/>
<path d="M26.3657 17.7084H28.2315V19.5626H26.3657V17.7084Z" fill="#101010"/>
<path d="M28.2315 17.7084H30.0972V19.5626H28.2315V17.7084Z" fill="#101010"/>
<path d="M30.0972 17.7084H31.963V19.5626H30.0972V17.7084Z" fill="#101010"/>
<path d="M31.963 17.7084H33.8287V19.5626H31.963V17.7084Z" fill="#101010"/>
<path d="M33.8287 17.7084H35.6944V19.5626H33.8287V17.7084Z" fill="#101010"/>
<path d="M35.6944 17.7084H37.5602V19.5626H35.6944V17.7084Z" fill="#101010"/>
<path d="M37.5602 17.7084H39.4259V19.5626H37.5602V17.7084Z" fill="#101010"/>
<path d="M39.4259 17.7084H41.2917V19.5626H39.4259V17.7084Z" fill="#101010"/>
<path d="M41.2917 17.7084H43.1574V19.5626H41.2917V17.7084Z" fill="#101010"/>
<path d="M43.1574 17.7084H45.0231V19.5626H43.1574V17.7084Z" fill="#101010"/>
<path d="M45.0231 17.7084H46.8889V19.5626H45.0231V17.7084Z" fill="#101010"/>
<path d="M46.8889 17.7084L48.7546 17.7084V19.5626H46.8889V17.7084Z" fill="#101010"/>
<path d="M109.903 17.7084H111.769V19.5626H109.903V17.7084Z" fill="#101010"/>
<path d="M111.769 17.7084H113.634V19.5626H111.769V17.7084Z" fill="#101010"/>
<path d="M113.634 17.7084H115.5V19.5626H113.634V17.7084Z" fill="#101010"/>
<path d="M24.5 19.5626H26.3657V21.4167H24.5V19.5626Z" fill="#101010"/>
<path d="M26.3657 19.5626H28.2315V21.4167H26.3657V19.5626Z" fill="#101010"/>
<path d="M28.2315 19.5626H30.0972V21.4167H28.2315V19.5626Z" fill="#101010"/>
<path d="M30.0972 19.5626H31.963V21.4167H30.0972V19.5626Z" fill="#101010"/>
<path d="M43.1574 19.5626H45.0231V21.4167H43.1574V19.5626Z" fill="#101010"/>
<path d="M45.0231 19.5626H46.8889V21.4167H45.0231V19.5626Z" fill="#101010"/>
<path d="M46.8889 19.5626H48.7546V21.4167H46.8889V19.5626Z" fill="#101010"/>
<path d="M48.7546 19.5626L50.6204 19.5626V21.4167H48.7546V19.5626Z" fill="#101010"/>
<path d="M109.903 19.5626H111.769V21.4167H109.903V19.5626Z" fill="#101010"/>
<path d="M111.769 19.5626H113.634V21.4167H111.769V19.5626Z" fill="#101010"/>
<path d="M113.634 19.5626H115.5V21.4167H113.634V19.5626Z" fill="#101010"/>
<path d="M24.5 21.4167H26.3657V23.2709H24.5V21.4167Z" fill="#101010"/>
<path d="M26.3657 21.4167H28.2315V23.2709H26.3657V21.4167Z" fill="#101010"/>
<path d="M28.2315 21.4167H30.0972V23.2709H28.2315V21.4167Z" fill="#101010"/>
<path d="M30.0972 21.4167H31.963V23.2709H30.0972V21.4167Z" fill="#101010"/>
<path d="M45.0231 21.4167H46.8889V23.2709H45.0231V21.4167Z" fill="#101010"/>
<path d="M46.8889 21.4167H48.7546V23.2709H46.8889V21.4167Z" fill="#101010"/>
<path d="M48.7546 21.4167H50.6204V23.2709H48.7546V21.4167Z" fill="#101010"/>
<path d="M91.2454 21.4167H93.1111V23.2709H91.2454V21.4167Z" fill="#101010"/>
<path d="M93.1111 21.4167H94.9769V23.2709H93.1111V21.4167Z" fill="#101010"/>
<path d="M94.9769 21.4167H96.8426V23.2709H94.9769V21.4167Z" fill="#101010"/>
<path d="M96.8426 21.4167H98.7083V23.2709H96.8426V21.4167Z" fill="#101010"/>
<path d="M109.903 21.4167H111.769V23.2709H109.903V21.4167Z" fill="#101010"/>
<path d="M111.769 21.4167H113.634V23.2709H111.769V21.4167Z" fill="#101010"/>
<path d="M113.634 21.4167H115.5V23.2709H113.634V21.4167Z" fill="#101010"/>
<path d="M24.5 23.2709H26.3657V25.1251H24.5V23.2709Z" fill="#101010"/>
<path d="M26.3657 23.2709H28.2315V25.1251H26.3657V23.2709Z" fill="#101010"/>
<path d="M28.2315 23.2709H30.0972V25.1251H28.2315V23.2709Z" fill="#101010"/>
<path d="M30.0972 23.2709H31.963V25.1251H30.0972V23.2709Z" fill="#101010"/>
<path d="M45.0231 23.2709H46.8889V25.1251H45.0231V23.2709Z" fill="#101010"/>
<path d="M46.8889 23.2709H48.7546V25.1251H46.8889V23.2709Z" fill="#101010"/>
<path d="M48.7546 23.2709H50.6204V25.1251H48.7546V23.2709Z" fill="#101010"/>
<path d="M63.2593 23.2709H65.125V25.1251H63.2593V23.2709Z" fill="#101010"/>
<path d="M65.125 23.2709H66.9907V25.1251H65.125V23.2709Z" fill="#101010"/>
<path d="M66.9907 23.2709H68.8565V25.1251H66.9907V23.2709Z" fill="#101010"/>
<path d="M76.3194 23.2709H78.1852V25.1251H76.3194V23.2709Z" fill="#101010"/>
<path d="M78.1852 23.2709H80.0509V25.1251H78.1852V23.2709Z" fill="#101010"/>
<path d="M80.0509 23.2709H81.9167V25.1251H80.0509V23.2709Z" fill="#101010"/>
<path d="M87.5139 23.2709H89.3796V25.1251H87.5139V23.2709Z" fill="#101010"/>
<path d="M89.3796 23.2709L91.2454 23.2709V25.1251H89.3796V23.2709Z" fill="#101010"/>
<path d="M91.2454 23.2709H93.1111V25.1251H91.2454V23.2709Z" fill="#101010"/>
<path d="M93.1111 23.2709H94.9769V25.1251H93.1111V23.2709Z" fill="#101010"/>
<path d="M94.9769 23.2709H96.8426V25.1251H94.9769V23.2709Z" fill="#101010"/>
<path d="M96.8426 23.2709H98.7083V25.1251H96.8426V23.2709Z" fill="#101010"/>
<path d="M98.7083 23.2709L100.574 23.2709V25.1251H98.7083V23.2709Z" fill="#101010"/>
<path d="M100.574 23.2709H102.44V25.1251H100.574V23.2709Z" fill="#101010"/>
<path d="M109.903 23.2709H111.769V25.1251H109.903V23.2709Z" fill="#101010"/>
<path d="M111.769 23.2709H113.634V25.1251H111.769V23.2709Z" fill="#101010"/>
<path d="M113.634 23.2709H115.5V25.1251H113.634V23.2709Z" fill="#101010"/>
<path d="M24.5 25.1251H26.3657V26.9793H24.5V25.1251Z" fill="#101010"/>
<path d="M26.3657 25.1251H28.2315V26.9793H26.3657V25.1251Z" fill="#101010"/>
<path d="M28.2315 25.1251H30.0972V26.9793H28.2315V25.1251Z" fill="#101010"/>
<path d="M30.0972 25.1251H31.963V26.9793H30.0972V25.1251Z" fill="#101010"/>
<path d="M45.0231 25.1251H46.8889V26.9793H45.0231V25.1251Z" fill="#101010"/>
<path d="M46.8889 25.1251H48.7546V26.9793H46.8889V25.1251Z" fill="#101010"/>
<path d="M48.7546 25.1251H50.6204V26.9793H48.7546V25.1251Z" fill="#101010"/>
<path d="M65.125 25.1251H66.9907V26.9793H65.125L65.125 25.1251Z" fill="#101010"/>
<path d="M66.9907 25.1251H68.8565V26.9793H66.9907V25.1251Z" fill="#101010"/>
<path d="M68.8565 25.1251L70.7222 25.1251V26.9793H68.8565V25.1251Z" fill="#101010"/>
<path d="M74.4537 25.1251L76.3194 25.1251V26.9793H74.4537V25.1251Z" fill="#101010"/>
<path d="M76.3194 25.1251H78.1852V26.9793H76.3194V25.1251Z" fill="#101010"/>
<path d="M78.1852 25.1251H80.0509V26.9793H78.1852V25.1251Z" fill="#101010"/>
<path d="M85.6481 25.1251L87.5139 25.1251L87.5139 26.9793H85.6481V25.1251Z" fill="#101010"/>
<path d="M87.5139 25.1251H89.3796V26.9793H87.5139L87.5139 25.1251Z" fill="#101010"/>
<path d="M89.3796 25.1251H91.2454V26.9793H89.3796V25.1251Z" fill="#101010"/>
<path d="M91.2454 25.1251H93.1111V26.9793H91.2454V25.1251Z" fill="#101010"/>
<path d="M93.1111 25.1251H94.9769V26.9793H93.1111V25.1251Z" fill="#101010"/>
<path d="M94.9769 25.1251H96.8426V26.9793H94.9769V25.1251Z" fill="#101010"/>
<path d="M96.8426 25.1251H98.7083V26.9793H96.8426V25.1251Z" fill="#101010"/>
<path d="M98.7083 25.1251H100.574V26.9793H98.7083V25.1251Z" fill="#101010"/>
<path d="M100.574 25.1251H102.44V26.9793H100.574V25.1251Z" fill="#101010"/>
<path d="M102.44 25.1251L104.306 25.1251V26.9793H102.44V25.1251Z" fill="#101010"/>
<path d="M109.903 25.1251H111.769V26.9793H109.903V25.1251Z" fill="#101010"/>
<path d="M111.769 25.1251H113.634V26.9793H111.769V25.1251Z" fill="#101010"/>
<path d="M113.634 25.1251H115.5V26.9793H113.634V25.1251Z" fill="#101010"/>
<path d="M24.5 26.9793H26.3657V28.8335H24.5V26.9793Z" fill="#101010"/>
<path d="M26.3657 26.9793H28.2315V28.8335H26.3657V26.9793Z" fill="#101010"/>
<path d="M28.2315 26.9793H30.0972V28.8335H28.2315V26.9793Z" fill="#101010"/>
<path d="M30.0972 26.9793H31.963V28.8335H30.0972V26.9793Z" fill="#101010"/>
<path d="M45.0231 26.9793H46.8889V28.8335H45.0231V26.9793Z" fill="#101010"/>
<path d="M46.8889 26.9793H48.7546V28.8335H46.8889V26.9793Z" fill="#101010"/>
<path d="M48.7546 26.9793H50.6204V28.8335H48.7546V26.9793Z" fill="#101010"/>
<path d="M65.125 26.9793H66.9907V28.8335H65.125V26.9793Z" fill="#101010"/>
<path d="M66.9907 26.9793H68.8565V28.8335H66.9907V26.9793Z" fill="#101010"/>
<path d="M68.8565 26.9793H70.7222V28.8335H68.8565V26.9793Z" fill="#101010"/>
<path d="M74.4537 26.9793H76.3194V28.8335H74.4537V26.9793Z" fill="#101010"/>
<path d="M76.3194 26.9793H78.1852V28.8335H76.3194V26.9793Z" fill="#101010"/>
<path d="M78.1852 26.9793H80.0509V28.8335H78.1852V26.9793Z" fill="#101010"/>
<path d="M85.6481 26.9793H87.5139V28.8335H85.6481V26.9793Z" fill="#101010"/>
<path d="M87.5139 26.9793H89.3796V28.8335H87.5139V26.9793Z" fill="#101010"/>
<path d="M89.3796 26.9793H91.2454V28.8335H89.3796V26.9793Z" fill="#101010"/>
<path d="M100.574 26.9793H102.44V28.8335H100.574L100.574 26.9793Z" fill="#101010"/>
<path d="M102.44 26.9793H104.306V28.8335H102.44V26.9793Z" fill="#101010"/>
<path d="M104.306 26.9793L106.171 26.9793V28.8335H104.306V26.9793Z" fill="#101010"/>
<path d="M109.903 26.9793H111.769V28.8335H109.903V26.9793Z" fill="#101010"/>
<path d="M111.769 26.9793H113.634V28.8335H111.769V26.9793Z" fill="#101010"/>
<path d="M113.634 26.9793H115.5V28.8335H113.634V26.9793Z" fill="#101010"/>
<path d="M24.5 28.8335H26.3657V30.6877H24.5V28.8335Z" fill="#101010"/>
<path d="M26.3657 28.8335H28.2315V30.6877H26.3657V28.8335Z" fill="#101010"/>
<path d="M28.2315 28.8335H30.0972V30.6877H28.2315V28.8335Z" fill="#101010"/>
<path d="M30.0972 28.8335H31.963V30.6877H30.0972V28.8335Z" fill="#101010"/>
<path d="M43.1574 28.8335L45.0231 28.8335V30.6877H43.1574V28.8335Z" fill="#101010"/>
<path d="M45.0231 28.8335H46.8889V30.6877H45.0231V28.8335Z" fill="#101010"/>
<path d="M46.8889 28.8335H48.7546V30.6877H46.8889V28.8335Z" fill="#101010"/>
<path d="M48.7546 28.8335H50.6204V30.6877H48.7546V28.8335Z" fill="#101010"/>
<path d="M66.9907 28.8335H68.8565V30.6877H66.9907V28.8335Z" fill="#101010"/>
<path d="M68.8565 28.8335H70.7222V30.6877H68.8565V28.8335Z" fill="#101010"/>
<path d="M70.7222 28.8335L72.588 28.8335V30.6877H70.7222V28.8335Z" fill="#101010"/>
<path d="M72.588 28.8335L74.4537 28.8335V30.6877H72.588V28.8335Z" fill="#101010"/>
<path d="M74.4537 28.8335H76.3194V30.6877H74.4537V28.8335Z" fill="#101010"/>
<path d="M76.3194 28.8335H78.1852V30.6877H76.3194V28.8335Z" fill="#101010"/>
<path d="M85.6481 28.8335H87.5139V30.6877H85.6481V28.8335Z" fill="#101010"/>
<path d="M87.5139 28.8335H89.3796V30.6877H87.5139V28.8335Z" fill="#101010"/>
<path d="M100.574 28.8335H102.44V30.6877H100.574V28.8335Z" fill="#101010"/>
<path d="M102.44 28.8335H104.306V30.6877H102.44V28.8335Z" fill="#101010"/>
<path d="M104.306 28.8335H106.171V30.6877H104.306V28.8335Z" fill="#101010"/>
<path d="M109.903 28.8335H111.769V30.6877H109.903V28.8335Z" fill="#101010"/>
<path d="M111.769 28.8335H113.634V30.6877H111.769V28.8335Z" fill="#101010"/>
<path d="M113.634 28.8335H115.5V30.6877H113.634V28.8335Z" fill="#101010"/>
<path d="M24.5 30.6877H26.3657V32.5419H24.5V30.6877Z" fill="#101010"/>
<path d="M26.3657 30.6877H28.2315V32.5419H26.3657V30.6877Z" fill="#101010"/>
<path d="M28.2315 30.6877H30.0972V32.5419H28.2315V30.6877Z" fill="#101010"/>
<path d="M30.0972 30.6877H31.963V32.5419H30.0972V30.6877Z" fill="#101010"/>
<path d="M31.963 30.6877L33.8287 30.6877V32.5419H31.963V30.6877Z" fill="#101010"/>
<path d="M33.8287 30.6877H35.6944V32.5419H33.8287V30.6877Z" fill="#101010"/>
<path d="M35.6944 30.6877H37.5602V32.5419H35.6944V30.6877Z" fill="#101010"/>
<path d="M37.5602 30.6877H39.4259V32.5419H37.5602V30.6877Z" fill="#101010"/>
<path d="M39.4259 30.6877H41.2917V32.5419H39.4259V30.6877Z" fill="#101010"/>
<path d="M41.2917 30.6877L43.1574 30.6877V32.5419H41.2917V30.6877Z" fill="#101010"/>
<path d="M43.1574 30.6877H45.0231V32.5419H43.1574V30.6877Z" fill="#101010"/>
<path d="M45.0231 30.6877H46.8889V32.5419H45.0231V30.6877Z" fill="#101010"/>
<path d="M46.8889 30.6877H48.7546V32.5419H46.8889V30.6877Z" fill="#101010"/>
<path d="M68.8565 30.6877H70.7222V32.5419H68.8565V30.6877Z" fill="#101010"/>
<path d="M70.7222 30.6877H72.588V32.5419H70.7222V30.6877Z" fill="#101010"/>
<path d="M72.588 30.6877H74.4537V32.5419H72.588V30.6877Z" fill="#101010"/>
<path d="M74.4537 30.6877H76.3194V32.5419H74.4537V30.6877Z" fill="#101010"/>
<path d="M85.6481 30.6877H87.5139V32.5419H85.6481V30.6877Z" fill="#101010"/>
<path d="M87.5139 30.6877H89.3796V32.5419H87.5139V30.6877Z" fill="#101010"/>
<path d="M89.3796 30.6877L91.2454 30.6877V32.5419H89.3796V30.6877Z" fill="#101010"/>
<path d="M91.2454 30.6877H93.1111V32.5419H91.2454V30.6877Z" fill="#101010"/>
<path d="M93.1111 30.6877H94.9769V32.5419H93.1111V30.6877Z" fill="#101010"/>
<path d="M94.9769 30.6877H96.8426V32.5419H94.9769V30.6877Z" fill="#101010"/>
<path d="M96.8426 30.6877H98.7083V32.5419H96.8426V30.6877Z" fill="#101010"/>
<path d="M98.7083 30.6877L100.574 30.6877L100.574 32.5419H98.7083V30.6877Z" fill="#101010"/>
<path d="M100.574 30.6877H102.44V32.5419H100.574L100.574 30.6877Z" fill="#101010"/>
<path d="M102.44 30.6877H104.306V32.5419H102.44V30.6877Z" fill="#101010"/>
<path d="M104.306 30.6877H106.171V32.5419H104.306V30.6877Z" fill="#101010"/>
<path d="M109.903 30.6877H111.769V32.5419H109.903V30.6877Z" fill="#101010"/>
<path d="M111.769 30.6877H113.634V32.5419H111.769V30.6877Z" fill="#101010"/>
<path d="M113.634 30.6877H115.5V32.5419H113.634V30.6877Z" fill="#101010"/>
<path d="M24.5 32.5419H26.3657V34.396H24.5V32.5419Z" fill="#101010"/>
<path d="M26.3657 32.5419H28.2315V34.396H26.3657V32.5419Z" fill="#101010"/>
<path d="M28.2315 32.5419H30.0972V34.396H28.2315V32.5419Z" fill="#101010"/>
<path d="M30.0972 32.5419H31.963V34.396H30.0972V32.5419Z" fill="#101010"/>
<path d="M31.963 32.5419H33.8287V34.396H31.963V32.5419Z" fill="#101010"/>
<path d="M33.8287 32.5419H35.6944V34.396H33.8287V32.5419Z" fill="#101010"/>
<path d="M35.6944 32.5419H37.5602V34.396H35.6944V32.5419Z" fill="#101010"/>
<path d="M37.5602 32.5419H39.4259V34.396H37.5602V32.5419Z" fill="#101010"/>
<path d="M39.4259 32.5419H41.2917V34.396H39.4259V32.5419Z" fill="#101010"/>
<path d="M41.2917 32.5419H43.1574V34.396H41.2917V32.5419Z" fill="#101010"/>
<path d="M43.1574 32.5419H45.0231V34.396H43.1574V32.5419Z" fill="#101010"/>
<path d="M45.0231 32.5419H46.8889V34.396H45.0231V32.5419Z" fill="#101010"/>
<path d="M46.8889 32.5419H48.7546V34.396H46.8889V32.5419Z" fill="#101010"/>
<path d="M68.8565 32.5419H70.7222V34.396H68.8565V32.5419Z" fill="#101010"/>
<path d="M70.7222 32.5419H72.588V34.396H70.7222V32.5419Z" fill="#101010"/>
<path d="M72.588 32.5419H74.4537V34.396H72.588V32.5419Z" fill="#101010"/>
<path d="M74.4537 32.5419H76.3194V34.396H74.4537V32.5419Z" fill="#101010"/>
<path d="M83.7824 32.5419L85.6481 32.5419V34.396H83.7824V32.5419Z" fill="#101010"/>
<path d="M85.6481 32.5419H87.5139V34.396H85.6481V32.5419Z" fill="#101010"/>
<path d="M87.5139 32.5419H89.3796V34.396H87.5139V32.5419Z" fill="#101010"/>
<path d="M89.3796 32.5419H91.2454V34.396H89.3796V32.5419Z" fill="#101010"/>
<path d="M91.2454 32.5419H93.1111V34.396H91.2454V32.5419Z" fill="#101010"/>
<path d="M93.1111 32.5419H94.9769V34.396H93.1111V32.5419Z" fill="#101010"/>
<path d="M94.9769 32.5419H96.8426V34.396H94.9769V32.5419Z" fill="#101010"/>
<path d="M96.8426 32.5419H98.7083V34.396H96.8426V32.5419Z" fill="#101010"/>
<path d="M98.7083 32.5419H100.574V34.396H98.7083V32.5419Z" fill="#101010"/>
<path d="M100.574 32.5419H102.44V34.396H100.574V32.5419Z" fill="#101010"/>
<path d="M102.44 32.5419H104.306V34.396H102.44V32.5419Z" fill="#101010"/>
<path d="M104.306 32.5419H106.171V34.396H104.306V32.5419Z" fill="#101010"/>
<path d="M109.903 32.5419H111.769V34.396H109.903V32.5419Z" fill="#101010"/>
<path d="M111.769 32.5419H113.634V34.396H111.769V32.5419Z" fill="#101010"/>
<path d="M113.634 32.5419H115.5V34.396H113.634V32.5419Z" fill="#101010"/>
<path d="M24.5 34.396H26.3657V36.2502H24.5V34.396Z" fill="#101010"/>
<path d="M26.3657 34.396H28.2315V36.2502H26.3657V34.396Z" fill="#101010"/>
<path d="M28.2315 34.396H30.0972V36.2502H28.2315V34.396Z" fill="#101010"/>
<path d="M30.0972 34.396H31.963V36.2502H30.0972V34.396Z" fill="#101010"/>
<path d="M31.963 34.396H33.8287V36.2502H31.963V34.396Z" fill="#101010"/>
<path d="M33.8287 34.396H35.6944V36.2502H33.8287V34.396Z" fill="#101010"/>
<path d="M35.6944 34.396H37.5602V36.2502H35.6944V34.396Z" fill="#101010"/>
<path d="M37.5602 34.396H39.4259V36.2502H37.5602V34.396Z" fill="#101010"/>
<path d="M39.4259 34.396H41.2917V36.2502H39.4259V34.396Z" fill="#101010"/>
<path d="M41.2917 34.396H43.1574V36.2502H41.2917V34.396Z" fill="#101010"/>
<path d="M43.1574 34.396H45.0231V36.2502H43.1574V34.396Z" fill="#101010"/>
<path d="M66.9907 34.396L68.8565 34.396V36.2502H66.9907V34.396Z" fill="#101010"/>
<path d="M68.8565 34.396H70.7222V36.2502H68.8565V34.396Z" fill="#101010"/>
<path d="M70.7222 34.396H72.588V36.2502H70.7222V34.396Z" fill="#101010"/>
<path d="M72.588 34.396H74.4537V36.2502H72.588V34.396Z" fill="#101010"/>
<path d="M74.4537 34.396H76.3194V36.2502H74.4537V34.396Z" fill="#101010"/>
<path d="M76.3194 34.396L78.1852 34.396V36.2502H76.3194V34.396Z" fill="#101010"/>
<path d="M85.6481 34.396H87.5139V36.2502H85.6481V34.396Z" fill="#101010"/>
<path d="M87.5139 34.396H89.3796V36.2502H87.5139V34.396Z" fill="#101010"/>
<path d="M109.903 34.396H111.769V36.2502H109.903V34.396Z" fill="#101010"/>
<path d="M111.769 34.396H113.634V36.2502H111.769V34.396Z" fill="#101010"/>
<path d="M113.634 34.396H115.5V36.2502H113.634V34.396Z" fill="#101010"/>
<path d="M24.5 36.2502H26.3657V38.1044H24.5V36.2502Z" fill="#101010"/>
<path d="M26.3657 36.2502H28.2315V38.1044H26.3657V36.2502Z" fill="#101010"/>
<path d="M28.2315 36.2502H30.0972V38.1044H28.2315V36.2502Z" fill="#101010"/>
<path d="M30.0972 36.2502H31.963V38.1044H30.0972V36.2502Z" fill="#101010"/>
<path d="M65.125 36.2502L66.9907 36.2502V38.1044H65.125V36.2502Z" fill="#101010"/>
<path d="M66.9907 36.2502H68.8565V38.1044H66.9907V36.2502Z" fill="#101010"/>
<path d="M68.8565 36.2502H70.7222V38.1044H68.8565V36.2502Z" fill="#101010"/>
<path d="M74.4537 36.2502H76.3194V38.1044H74.4537V36.2502Z" fill="#101010"/>
<path d="M76.3194 36.2502H78.1852V38.1044H76.3194V36.2502Z" fill="#101010"/>
<path d="M78.1852 36.2502L80.0509 36.2502V38.1044H78.1852V36.2502Z" fill="#101010"/>
<path d="M85.6481 36.2502H87.5139V38.1044H85.6481V36.2502Z" fill="#101010"/>
<path d="M87.5139 36.2502H89.3796V38.1044H87.5139V36.2502Z" fill="#101010"/>
<path d="M89.3796 36.2502L91.2454 36.2502V38.1044H89.3796V36.2502Z" fill="#101010"/>
<path d="M100.574 36.2502H102.44V38.1044H100.574V36.2502Z" fill="#101010"/>
<path d="M102.44 36.2502H104.306V38.1044H102.44V36.2502Z" fill="#101010"/>
<path d="M104.306 36.2502H106.171V38.1044H104.306V36.2502Z" fill="#101010"/>
<path d="M109.903 36.2502H111.769V38.1044H109.903V36.2502Z" fill="#101010"/>
<path d="M111.769 36.2502H113.634V38.1044H111.769V36.2502Z" fill="#101010"/>
<path d="M113.634 36.2502H115.5V38.1044H113.634V36.2502Z" fill="#101010"/>
<path d="M24.5 38.1044H26.3657V39.9586H24.5V38.1044Z" fill="#101010"/>
<path d="M26.3657 38.1044H28.2315V39.9586H26.3657V38.1044Z" fill="#101010"/>
<path d="M28.2315 38.1044H30.0972V39.9586H28.2315V38.1044Z" fill="#101010"/>
<path d="M30.0972 38.1044H31.963V39.9586H30.0972V38.1044Z" fill="#101010"/>
<path d="M65.125 38.1044H66.9907V39.9586H65.125V38.1044Z" fill="#101010"/>
<path d="M66.9907 38.1044H68.8565V39.9586H66.9907V38.1044Z" fill="#101010"/>
<path d="M68.8565 38.1044H70.7222V39.9586H68.8565V38.1044Z" fill="#101010"/>
<path d="M74.4537 38.1044H76.3194V39.9586H74.4537V38.1044Z" fill="#101010"/>
<path d="M76.3194 38.1044H78.1852V39.9586H76.3194V38.1044Z" fill="#101010"/>
<path d="M78.1852 38.1044H80.0509V39.9586H78.1852V38.1044Z" fill="#101010"/>
<path d="M85.6481 38.1044H87.5139V39.9586H85.6481V38.1044Z" fill="#101010"/>
<path d="M87.5139 38.1044H89.3796V39.9586H87.5139V38.1044Z" fill="#101010"/>
<path d="M89.3796 38.1044H91.2454V39.9586H89.3796V38.1044Z" fill="#101010"/>
<path d="M91.2454 38.1044L93.1111 38.1044V39.9586H91.2454V38.1044Z" fill="#101010"/>
<path d="M98.7083 38.1044L100.574 38.1044L100.574 39.9586H98.7083V38.1044Z" fill="#101010"/>
<path d="M100.574 38.1044H102.44V39.9586H100.574L100.574 38.1044Z" fill="#101010"/>
<path d="M102.44 38.1044H104.306V39.9586H102.44V38.1044Z" fill="#101010"/>
<path d="M109.903 38.1044H111.769V39.9586H109.903V38.1044Z" fill="#101010"/>
<path d="M111.769 38.1044H113.634V39.9586H111.769V38.1044Z" fill="#101010"/>
<path d="M113.634 38.1044H115.5V39.9586H113.634V38.1044Z" fill="#101010"/>
<path d="M24.5 39.9586H26.3657V41.8128H24.5V39.9586Z" fill="#101010"/>
<path d="M26.3657 39.9586H28.2315V41.8128H26.3657V39.9586Z" fill="#101010"/>
<path d="M28.2315 39.9586H30.0972V41.8128H28.2315V39.9586Z" fill="#101010"/>
<path d="M30.0972 39.9586H31.963V41.8128H30.0972V39.9586Z" fill="#101010"/>
<path d="M63.2593 39.9586L65.125 39.9586L65.125 41.8128H63.2593V39.9586Z" fill="#101010"/>
<path d="M65.125 39.9586H66.9907V41.8128H65.125L65.125 39.9586Z" fill="#101010"/>
<path d="M66.9907 39.9586H68.8565V41.8128H66.9907V39.9586Z" fill="#101010"/>
<path d="M76.3194 39.9586H78.1852V41.8128H76.3194V39.9586Z" fill="#101010"/>
<path d="M78.1852 39.9586H80.0509V41.8128H78.1852V39.9586Z" fill="#101010"/>
<path d="M80.0509 39.9586L81.9167 39.9586V41.8128H80.0509V39.9586Z" fill="#101010"/>
<path d="M87.5139 39.9586H89.3796V41.8128H87.5139L87.5139 39.9586Z" fill="#101010"/>
<path d="M89.3796 39.9586H91.2454V41.8128H89.3796V39.9586Z" fill="#101010"/>
<path d="M91.2454 39.9586H93.1111V41.8128H91.2454V39.9586Z" fill="#101010"/>
<path d="M93.1111 39.9586L94.9769 39.9586V41.8128H93.1111V39.9586Z" fill="#101010"/>
<path d="M94.9769 39.9586H96.8426V41.8128H94.9769V39.9586Z" fill="#101010"/>
<path d="M96.8426 39.9586L98.7083 39.9586L98.7083 41.8128H96.8426V39.9586Z" fill="#101010"/>
<path d="M98.7083 39.9586H100.574V41.8128H98.7083L98.7083 39.9586Z" fill="#101010"/>
<path d="M100.574 39.9586H102.44V41.8128H100.574V39.9586Z" fill="#101010"/>
<path d="M102.44 39.9586H104.306V41.8128H102.44V39.9586Z" fill="#101010"/>
<path d="M109.903 39.9586H111.769V41.8128H109.903V39.9586Z" fill="#101010"/>
<path d="M111.769 39.9586H113.634V41.8128H111.769V39.9586Z" fill="#101010"/>
<path d="M113.634 39.9586H115.5V41.8128H113.634V39.9586Z" fill="#101010"/>
<path d="M24.5 41.8128H26.3657V43.667H24.5V41.8128Z" fill="#101010"/>
<path d="M26.3657 41.8128H28.2315V43.667H26.3657V41.8128Z" fill="#101010"/>
<path d="M28.2315 41.8128H30.0972V43.667H28.2315V41.8128Z" fill="#101010"/>
<path d="M30.0972 41.8128H31.963V43.667H30.0972V41.8128Z" fill="#101010"/>
<path d="M61.3935 41.8128L63.2593 41.8128V43.667H61.3935V41.8128Z" fill="#101010"/>
<path d="M63.2593 41.8128H65.125V43.667H63.2593V41.8128Z" fill="#101010"/>
<path d="M65.125 41.8128H66.9907V43.667H65.125V41.8128Z" fill="#101010"/>
<path d="M78.1852 41.8128H80.0509V43.667H78.1852L78.1852 41.8128Z" fill="#101010"/>
<path d="M80.0509 41.8128H81.9167V43.667H80.0509V41.8128Z" fill="#101010"/>
<path d="M81.9167 41.8128L83.7824 41.8128V43.667H81.9167V41.8128Z" fill="#101010"/>
<path d="M89.3796 41.8128H91.2454V43.667H89.3796V41.8128Z" fill="#101010"/>
<path d="M91.2454 41.8128H93.1111V43.667H91.2454V41.8128Z" fill="#101010"/>
<path d="M93.1111 41.8128H94.9769V43.667H93.1111V41.8128Z" fill="#101010"/>
<path d="M94.9769 41.8128H96.8426V43.667H94.9769V41.8128Z" fill="#101010"/>
<path d="M96.8426 41.8128H98.7083V43.667H96.8426V41.8128Z" fill="#101010"/>
<path d="M98.7083 41.8128H100.574V43.667H98.7083V41.8128Z" fill="#101010"/>
<path d="M109.903 41.8128H111.769V43.667H109.903V41.8128Z" fill="#101010"/>
<path d="M111.769 41.8128H113.634V43.667H111.769V41.8128Z" fill="#101010"/>
<path d="M113.634 41.8128H115.5V43.667H113.634V41.8128Z" fill="#101010"/>
<path d="M58.7577 23.1119V43.6793H54.0073V23.1119H58.7577Z" fill="#101010"/>
<path d="M53.8432 15.4197V19.8622H58.9218V15.4197H53.8432Z" fill="#FD1524"/>
<path d="M24.5 8H19.5V13.4948M24.5 49H19.5V43.5052" stroke="#FD1524" stroke-width="3"/>
<path d="M116.5 49H121.5V43.5052M116.5 8H121.5V13.4948" stroke="#FD1524" stroke-width="3"/>
<path d="M56.5 5V53" stroke="#FD1524" stroke-width="5.2"/>
</svg>
